<svg width="159" height="151" viewBox="0 0 159 151" fill="none" xmlns="http://www.w3.org/2000/svg">
<path d="M74.7521 4.38063C76.2631 -0.195943 82.7369 -0.195926 84.2479 4.38064L99.5833 50.829C100.26 52.8776 102.174 54.2614 104.331 54.2614H153.785C158.648 54.2614 160.649 60.5003 156.694 63.3287L116.823 91.8368C115.042 93.1099 114.297 95.3931 114.983 97.4716L130.245 143.697C131.761 148.289 126.523 152.145 122.589 149.332L82.4081 120.602C80.6688 119.359 78.3312 119.359 76.5919 120.602L36.4115 149.332C32.4774 152.145 27.2392 148.289 28.7554 143.697L44.0171 97.4716C44.7034 95.3931 43.9579 93.1099 42.1774 91.8368L2.30649 63.3287C-1.64932 60.5003 0.351656 54.2614 5.21463 54.2614H54.6688C56.8262 54.2614 58.7403 52.8776 59.4167 50.829L74.7521 4.38063Z" fill="#FFF067" fill-opacity="0.82"/>
</svg>
